<svg width="76" height="76" viewBox="0 0 76 76" fill="none" xmlns="http://www.w3.org/2000/svg">
<path d="M11.5808 76C5.19576 76 0 70.8043 0 64.4192C0 58.0341 5.19576 52.8384 11.5808 52.8384C17.9659 52.8384 23.1604 58.0341 23.1604 64.4192C23.1604 70.8043 17.9671 76 11.5808 76ZM11.5808 57.5672C7.80251 57.5672 4.72879 60.6409 4.72879 64.4192C4.72879 68.1975 7.80251 71.2712 11.5808 71.2712C15.3591 71.2712 18.4317 68.1975 18.4317 64.4192C18.4317 60.6409 15.3591 57.5672 11.5808 57.5672Z" fill="#3DB3AD"/>
<path d="M66.7836 18.4328C71.8737 18.4328 76 14.3065 76 9.21642C76 4.12633 71.8737 0 66.7836 0C61.6935 0 57.5672 4.12633 57.5672 9.21642C57.5672 14.3065 61.6935 18.4328 66.7836 18.4328Z" fill="#3DB3AD"/>
<path d="M56.2206 19.3433L45.9721 22.0883L48.8874 25.0036L21.8233 52.0689L23.495 53.7405L50.559 26.6753L53.4755 29.5917L56.2206 19.3433Z" fill="#3DB3AD"/>
</svg>
