<svg width="195" height="176" viewBox="0 0 195 176" fill="none" xmlns="http://www.w3.org/2000/svg">
<circle cx="10" cy="10" r="10" fill="#3DB3AD"/>
<circle cx="10" cy="36" r="10" fill="#3DB3AD"/>
<circle cx="10" cy="62" r="10" fill="#3DB3AD"/>
<circle cx="10" cy="88" r="10" fill="#3DB3AD"/>
<circle cx="10" cy="114" r="10" fill="#3DB3AD"/>
<circle cx="10" cy="140" r="10" fill="#3DB3AD"/>
<circle cx="10" cy="166" r="10" fill="#3DB3AD"/>
<circle cx="35" cy="10" r="10" fill="#3DB3AD"/>
<circle cx="35" cy="36" r="10" fill="#3DB3AD"/>
<circle cx="35" cy="62" r="10" fill="#3DB3AD"/>
<circle cx="35" cy="88" r="10" fill="#3DB3AD"/>
<circle cx="35" cy="114" r="10" fill="#3DB3AD"/>
<circle cx="35" cy="140" r="10" fill="#3DB3AD"/>
<circle cx="35" cy="166" r="10" fill="#3DB3AD"/>
<circle cx="60" cy="10" r="10" fill="#3DB3AD"/>
<circle cx="60" cy="36" r="10" fill="#3DB3AD"/>
<circle cx="60" cy="62" r="10" fill="#3DB3AD"/>
<circle cx="60" cy="88" r="10" fill="#3DB3AD"/>
<circle cx="60" cy="114" r="10" fill="#3DB3AD"/>
<circle cx="60" cy="140" r="10" fill="#3DB3AD"/>
<circle cx="60" cy="166" r="10" fill="#3DB3AD"/>
<circle cx="85" cy="10" r="10" fill="#3DB3AD"/>
<circle cx="85" cy="36" r="10" fill="#3DB3AD"/>
<circle cx="85" cy="62" r="10" fill="#3DB3AD"/>
<circle cx="85" cy="88" r="10" fill="#3DB3AD"/>
<circle cx="85" cy="114" r="10" fill="#3DB3AD"/>
<circle cx="85" cy="140" r="10" fill="#3DB3AD"/>
<circle cx="85" cy="166" r="10" fill="#3DB3AD"/>
<circle cx="110" cy="10" r="10" fill="#3DB3AD"/>
<circle cx="110" cy="36" r="10" fill="#3DB3AD"/>
<circle cx="110" cy="62" r="10" fill="#3DB3AD"/>
<circle cx="110" cy="88" r="10" fill="#3DB3AD"/>
<circle cx="110" cy="114" r="10" fill="#3DB3AD"/>
<circle cx="110" cy="140" r="10" fill="#3DB3AD"/>
<circle cx="110" cy="166" r="10" fill="#3DB3AD"/>
<circle cx="135" cy="10" r="10" fill="#3DB3AD"/>
<circle cx="135" cy="36" r="10" fill="#3DB3AD"/>
<circle cx="135" cy="62" r="10" fill="#3DB3AD"/>
<circle cx="135" cy="88" r="10" fill="#3DB3AD"/>
<circle cx="135" cy="114" r="10" fill="#3DB3AD"/>
<circle cx="135" cy="140" r="10" fill="#3DB3AD"/>
<circle cx="135" cy="166" r="10" fill="#3DB3AD"/>
<circle cx="160" cy="10" r="10" fill="#3DB3AD"/>
<circle cx="160" cy="36" r="10" fill="#3DB3AD"/>
<circle cx="160" cy="62" r="10" fill="#3DB3AD"/>
<circle cx="160" cy="88" r="10" fill="#3DB3AD"/>
<circle cx="160" cy="114" r="10" fill="#3DB3AD"/>
<circle cx="160" cy="140" r="10" fill="#3DB3AD"/>
<circle cx="160" cy="166" r="10" fill="#3DB3AD"/>
<circle cx="185" cy="10" r="10" fill="#3DB3AD"/>
<circle cx="185" cy="36" r="10" fill="#3DB3AD"/>
<circle cx="185" cy="62" r="10" fill="#3DB3AD"/>
<circle cx="185" cy="88" r="10" fill="#3DB3AD"/>
<circle cx="185" cy="114" r="10" fill="#3DB3AD"/>
<circle cx="185" cy="140" r="10" fill="#3DB3AD"/>
<circle cx="185" cy="166" r="10" fill="#3DB3AD"/>
</svg>
