<svg width="76" height="65" viewBox="0 0 76 65" fill="none" xmlns="http://www.w3.org/2000/svg">
<path d="M22.75 30.3333C26.7725 30.3333 30.6302 28.7354 33.4745 25.8911C36.3188 23.0468 37.9167 19.1891 37.9167 15.1667C37.9167 11.1442 36.3188 7.28651 33.4745 4.44221C30.6302 1.59791 26.7725 0 22.75 0C18.7276 0 14.8698 1.59791 12.0255 4.44221C9.18124 7.28651 7.58333 11.1442 7.58333 15.1667C7.58333 19.1891 9.18124 23.0468 12.0255 25.8911C14.8698 28.7354 18.7276 30.3333 22.75 30.3333ZM56.875 30.3333C59.8918 30.3333 62.7851 29.1349 64.9183 27.0017C67.0516 24.8684 68.25 21.9752 68.25 18.9583C68.25 15.9415 67.0516 13.0482 64.9183 10.915C62.7851 8.78177 59.8918 7.58333 56.875 7.58333C53.8582 7.58333 50.9649 8.78177 48.8317 10.915C46.6984 13.0482 45.5 15.9415 45.5 18.9583C45.5 21.9752 46.6984 24.8684 48.8317 27.0017C50.9649 29.1349 53.8582 30.3333 56.875 30.3333ZM8.53125 37.9167C6.26862 37.9167 4.09866 38.8155 2.49875 40.4154C0.898825 42.0153 0 44.1853 0 46.4479V47.3958C0 47.3958 0 64.4583 22.75 64.4583C45.5 64.4583 45.5 47.3958 45.5 47.3958V46.4479C45.5 44.1853 44.6012 42.0153 43.0013 40.4154C41.4013 38.8155 39.2314 37.9167 36.9688 37.9167H8.53125ZM56.875 58.7708C52.435 58.7708 49.0338 58.0845 46.429 57.0343C47.9449 54.4756 48.8964 51.6224 49.2196 48.666C49.2565 48.3068 49.2806 47.9464 49.2917 47.5854V46.4479C49.2965 43.2714 48.0707 40.2165 45.8716 37.9243C46.0004 37.9189 46.1294 37.9164 46.2583 37.9167H67.4917C69.704 37.9167 71.8258 38.7955 73.3901 40.3599C74.9545 41.9243 75.8333 44.046 75.8333 46.2583C75.8333 46.2583 75.8333 58.7708 56.875 58.7708Z" fill="#3DB3AD"/>
</svg>
