<svg width="93" height="94" viewBox="0 0 93 94" fill="none" xmlns="http://www.w3.org/2000/svg">
<path d="M2.67377 31.659L15.0471 31.8132C15.0471 31.8132 14.9963 24.4474 15.0471 23.8966C15.098 23.3532 15.5339 23.1843 16.2314 23.1843H24.6014C24.6014 23.1843 27.6603 8.70242 46.8851 8.80523C65.1073 8.9007 68.602 23.0227 68.602 23.0227C68.602 23.0227 76.7541 23.1329 77.2917 23.1329C77.8294 23.1329 78.0982 23.5662 78.0982 24.1684V31.703H90.2899L89.7087 33.1204L86.1485 39.179L6.77884 39.1716L2.67377 31.659Z" fill="#FADBBC"/>
<path d="M14.9672 37.9673L7.19298 37.9747C7.19298 37.9747 3.90166 32.5403 3.61103 32.1144C3.22595 31.5636 2.36134 31.6517 2.07798 31.6958C1.59119 31.7619 1.97627 32.555 2.52119 33.3481C3.06611 34.1412 5.38384 38.0701 5.38384 38.0701V90.9598H87.6452L87.7106 38.2464C87.7106 38.2464 90.6024 33.4436 90.8857 32.9662C91.1691 32.4889 91.5977 31.7251 91.0746 31.6958C90.5079 31.6664 89.854 31.5636 89.2945 32.4522C88.6552 33.473 85.9669 37.7103 85.9669 37.7103H78.12V29.5H66.0591C66.0591 29.5 65.6304 12.7269 46.3329 12.8444C27.0427 12.9692 27.2606 29.4853 27.2606 29.4853H15.0689C15.0689 29.4926 14.9672 37.8205 14.9672 37.9673Z" fill="#B99277"/>
<path d="M7.1639 41.2643H14.8582V73.7824L7.09851 73.8559L7.1639 41.2643ZM16.8127 32.8043V65.3959L76.3763 65.3298V32.9438H62.3463C62.3463 32.9438 63.349 16.4865 46.7616 16.3102C29.5638 16.1193 30.8426 32.6721 30.8426 32.6721L16.8127 32.8043Z" fill="#E2C090"/>
<path d="M30.8426 32.6724L26.3669 32.7091V90.9891H30.9951C31.0024 90.9891 30.8862 32.6724 30.8426 32.6724ZM62.3463 32.9441H66.9891L66.9818 90.967H62.1356C62.1356 90.967 62.4626 32.6797 62.3463 32.9441Z" fill="#FADBBC"/>
<path d="M85.916 41.5361H78.4179V73.7752H85.8434L85.916 41.5361Z" fill="#E2C090"/>
<path d="M36.488 73.0337L36.4662 91.2095H56.8172L56.839 72.4756L36.488 73.0337Z" fill="#FFA828"/>
<path d="M38.3625 75.3911V89.0725H45.5409V75.4352L38.3625 75.3911ZM47.5971 75.5306H54.6883L54.87 89.0725H47.648L47.5971 75.5306Z" fill="#546F7A"/>
<path d="M15.0326 72.7249C15.0326 72.9526 15.0907 92.2666 15.1997 92.4355C15.3087 92.6045 20.5981 92.6632 20.8233 92.4355C20.8814 92.3768 20.8233 72.6074 20.8233 72.6074L15.0326 72.7249ZM72.4165 72.9012C72.4165 72.9012 72.2058 91.5837 72.3584 92.0463C72.4165 92.2152 77.6841 92.3621 77.982 92.1565C78.1491 92.0463 78.1491 72.8424 78.1491 72.8424L72.4165 72.9012Z" fill="#FADDC3"/>
<path d="M82.6755 85.8705C81.6002 85.8264 79.3624 84.8203 79.5877 81.2733C79.8056 77.7997 81.5203 75.8536 82.6755 75.8096C83.8308 75.7655 85.7634 78.8058 85.7634 81.3614C85.7634 84.3136 84.5646 85.9513 82.6755 85.8705ZM10.6587 75.8536C9.57609 75.8977 7.40367 78.7617 7.48359 81.971C7.57078 85.3564 9.37265 86.1349 10.5279 86.223C11.6831 86.3111 13.703 84.8791 13.6158 81.758C13.5286 78.6369 11.734 75.8096 10.6587 75.8536Z" fill="#2F7C31"/>
<path d="M7.96314 85.6577C7.84689 85.9515 8.00674 90.9673 8.00674 90.9673L12.8965 90.9599C12.8965 90.9599 12.9764 85.8266 12.9764 85.6504C12.9837 85.4815 8.02127 85.5109 7.96314 85.6577ZM80.0527 85.4374C80.0091 85.2171 85.0732 85.2612 85.1168 85.3934C85.2113 85.6798 85.0442 90.9893 85.0442 90.9893H80.0672L80.0527 85.4374Z" fill="#E2C090"/>
<path d="M14.1099 67.4964C14.1099 67.4964 14.1607 71.7998 14.1971 72.5121C14.2334 73.2245 14.1171 73.9001 15.6938 73.9148C17.2413 73.9295 77.2264 73.9442 78.0038 73.9442C78.7812 73.9442 79.6603 73.4962 79.733 72.3726C79.8056 71.2564 79.7693 67.6506 79.7693 67.6506L46.0859 66.4756L14.1099 67.4964Z" fill="#AF0C1A"/>
<path d="M79.7693 67.6505C79.7693 67.6505 79.8056 66.0348 79.8056 65.5355C79.8056 65.0287 79.3624 64.6395 78.0837 64.6102C76.8049 64.5808 16.6746 64.5 15.4249 64.5C14.1752 64.5 14.1462 65.1609 14.088 65.7778C14.0299 66.3947 14.1026 67.4963 14.1026 67.4963L79.7693 67.6505Z" fill="#FADBBC"/>
<path d="M34.0758 27.6421H40.3533V61.159H34.0758V27.6421ZM53.0754 27.6421H59.3529V61.159H53.0754V27.6421Z" fill="#6C1507"/>
<path d="M39.3579 41.3965H53.8892V48.0059H39.3579V41.3965Z" fill="#6C1507"/>
<path d="M69.5175 34.229H74.153V41.6168H69.5175V34.229ZM69.4957 44.5249H74.1312V51.9128H69.4957V44.5249ZM69.4957 55.0045H74.1312V62.3923H69.4957V55.0045ZM19.4283 34.5595H24.0638V41.9473H19.4283V34.5595ZM19.4065 44.8554H24.042V52.2432H19.4065V44.8554ZM19.4065 55.3349H24.042V62.7228H19.4065V55.3349ZM8.65338 44.9142H13.2889V52.302H8.65338V44.9142ZM8.65338 55.3863H13.2889V62.7742H8.65338V55.3863ZM79.8783 44.5543H84.5138V51.9421H79.8783V44.5543ZM79.8783 55.0338H84.5138V62.4217H79.8783V55.0338Z" fill="#536F79"/>
</svg>
