<svg width="2172" height="477" viewBox="0 0 2172 477" fill="none" xmlns="http://www.w3.org/2000/svg">
<path d="M0 178.081C0 157.2 14.7453 136.849 33.2924 146.441C101.303 181.615 174.097 364.975 416.942 103.786C422.61 97.6896 429.944 92.4774 437.99 90.3438C621.241 41.7476 750.911 398.564 1009.77 58.3056C1016.21 49.8496 1025.25 42.7083 1035.64 40.5054C1198.23 6.04735 1092.44 361.501 1382.15 152.059C1389.56 146.709 1398.61 142.806 1407.73 142.541C1553.16 138.316 1629.76 316.301 1854.54 96.6691C1879.58 72.2074 1921.01 77.9884 1945.24 103.24C2091.8 255.93 2172 -227.382 2172 143.499V426C2172 454.166 2149.17 477 2121 477H51C22.8335 477 0 454.167 0 426V178.081Z" fill="white" fill-opacity="0.08"/>
</svg>
