<svg width="2172" height="529" viewBox="0 0 2172 529" fill="none" xmlns="http://www.w3.org/2000/svg">
<path d="M2172 192.367C2172 172.171 2157.89 152.021 2140.12 161.619C2071.68 198.584 1999.55 406.878 1754.87 114.87C1749.33 108.268 1741.96 102.507 1733.69 100.098C1550.51 46.739 1420.81 442.187 1161.84 64.0948C1155.67 55.0939 1146.68 47.3175 1136.05 44.85C973.978 7.21712 1079.28 400.386 790.263 168.97C782.613 162.844 773.026 158.301 763.228 158.05C618.997 154.346 542.257 348.799 319.869 109.807C294.629 82.6834 249.844 88.5255 225.239 116.226C79.6438 280.136 0 -250.748 0 159.142V478C0 506.166 22.8335 529 51 529H2121C2149.17 529 2172 506.167 2172 478V192.367Z" fill="white" fill-opacity="0.04"/>
</svg>
