<svg width="75" height="72" viewBox="0 0 75 72" fill="none" xmlns="http://www.w3.org/2000/svg">
<path d="M0.612701 66.8456V64.5906C3.18425 62.3356 5.64864 58.6309 8.00589 53.4765C10.4703 48.3221 11.7025 42.3624 11.7025 35.5973C11.7025 32.4832 11.2203 29.9597 10.256 28.0268C9.29167 26.094 7.89875 24 6.07724 21.745C4.47002 19.8121 3.23782 18.094 2.38064 16.5906C1.6306 15.0873 1.25559 13.2081 1.25559 10.953C1.25559 7.73154 2.27349 5.10067 4.3093 3.0604C6.45225 1.02013 9.13094 0 12.3454 0C15.5598 0 18.5064 1.2349 21.1851 3.7047C23.8638 6.1745 25.9531 9.44966 27.4532 13.5302C29.0604 17.6107 29.864 21.9597 29.864 26.5772C29.864 33.7718 28.5783 40.5369 26.0067 46.8725C23.5423 53.1007 20.4886 58.4161 16.8456 62.8188C13.2026 67.1141 9.72026 70.1745 6.39868 72H6.23796L0.612701 66.8456ZM45.2933 66.8456V64.5906C47.8648 62.3356 50.3292 58.6309 52.6865 53.4765C55.1509 48.3221 56.3831 42.3624 56.3831 35.5973C56.3831 32.4832 55.9009 29.9597 54.9366 28.0268C53.9723 26.094 52.5793 24 50.7578 21.745C49.1506 19.8121 47.9184 18.094 47.0612 16.5906C46.3112 15.0873 45.9362 13.2081 45.9362 10.953C45.9362 7.73154 46.9541 5.10067 48.9899 3.0604C51.1329 1.02013 53.758 0 56.8653 0C60.0797 0 63.0262 1.2349 65.7049 3.7047C68.4908 6.1745 70.6337 9.44966 72.1338 13.5302C73.741 17.6107 74.5446 21.9597 74.5446 26.5772C74.5446 33.7718 73.2589 40.5369 70.6873 46.8725C68.2229 53.1007 65.1692 58.4161 61.5262 62.8188C57.8832 67.1141 54.4009 70.1745 51.0793 72H50.9186L45.2933 66.8456Z" fill="#FFB185" fill-opacity="0.72"/>
</svg>
