<svg width="88" height="63" viewBox="0 0 88 63" fill="none" xmlns="http://www.w3.org/2000/svg">
<path d="M61.3439 60.0448C61.3439 60.8285 61.0316 61.5802 60.4759 62.1344C59.9201 62.6886 59.1663 63 58.3804 63H5.03726C4.25129 63 3.49751 62.6886 2.94175 62.1344C2.38598 61.5802 2.07376 60.8285 2.07376 60.0448C2.07376 59.261 2.38598 58.5093 2.94175 57.9551C3.49751 57.4009 4.25129 57.0895 5.03726 57.0895H58.3804C59.1663 57.0895 59.9201 57.4009 60.4759 57.9551C61.0316 58.5093 61.3439 59.261 61.3439 60.0448ZM87.682 13.3151L80.7919 4.89272C78.7782 2.4243 75.9415 0.760198 72.7997 0.204107C69.6578 -0.351984 66.4202 0.237013 63.6776 1.86361L47.8229 11.1357L26.2634 3.96921C25.9127 3.85053 25.5307 3.86367 25.1891 4.00616L19.0769 6.62892C18.3946 6.92325 17.7972 7.38351 17.3394 7.96758C16.8816 8.55166 16.578 9.2409 16.4564 9.97223C16.3348 10.7036 16.399 11.4536 16.6433 12.1538C16.8875 12.854 17.3039 13.4819 17.8544 13.9801L27.7081 22.8458L19.7437 27.3525L10.0752 23.2152C9.69409 23.0668 9.27095 23.0668 8.88982 23.2152L2.7035 25.8749C2.02298 26.1639 1.42554 26.6177 0.965312 27.1951C0.505083 27.7725 0.196616 28.4553 0.0678644 29.1817C-0.0608875 29.908 -0.00585427 30.6549 0.227977 31.3547C0.461808 32.0544 0.867046 32.6849 1.40697 33.1891L15.3725 46.2291C17.4573 48.1975 20.1263 49.4382 22.9786 49.7646C25.831 50.091 28.7125 49.4855 31.1902 48.0391L87.2745 15.5316C87.4605 15.4209 87.6199 15.271 87.7415 15.0923C87.8631 14.9136 87.944 14.7105 87.9784 14.4972C88.0137 14.2905 88.0057 14.0786 87.9547 13.8752C87.9036 13.6717 87.8108 13.481 87.682 13.3151Z" fill="#3DB3AD"/>
</svg>
