<svg width="33" height="34" viewBox="0 0 33 34" fill="none" xmlns="http://www.w3.org/2000/svg">
<path d="M32.1271 30.0077L25.9593 23.763C27.9493 21.1886 29.0291 18.0095 29.0251 14.7368C29.0251 11.8221 28.1739 8.9729 26.5793 6.54946C24.9846 4.12601 22.7181 2.23716 20.0662 1.12177C17.4144 0.00638515 14.4964 -0.285452 11.6813 0.283169C8.86613 0.85179 6.28024 2.25533 4.25063 4.3163C2.22101 6.37727 0.83883 9.00311 0.278861 11.8618C-0.281108 14.7204 0.006288 17.6835 1.10471 20.3763C2.20313 23.069 4.06323 25.3706 6.44981 26.9899C8.83638 28.6092 11.6422 29.4735 14.5125 29.4735C17.7355 29.4776 20.8662 28.3811 23.4015 26.3604L29.5511 32.6235C29.7198 32.7961 29.9204 32.9332 30.1415 33.0267C30.3625 33.1202 30.5996 33.1684 30.8391 33.1684C31.0786 33.1684 31.3157 33.1202 31.5368 33.0267C31.7578 32.9332 31.9585 32.7961 32.1271 32.6235C32.2971 32.4522 32.4321 32.2485 32.5242 32.024C32.6163 31.7995 32.6637 31.5588 32.6637 31.3156C32.6637 31.0724 32.6163 30.8316 32.5242 30.6072C32.4321 30.3827 32.2971 30.179 32.1271 30.0077ZM3.62814 14.7368C3.62814 12.5508 4.2665 10.4139 5.46249 8.59628C6.65848 6.7787 8.35839 5.36206 10.3473 4.52552C12.3361 3.68898 14.5246 3.4701 16.636 3.89656C18.7473 4.32303 20.6868 5.37568 22.209 6.92141C23.7312 8.46714 24.7678 10.4365 25.1878 12.5805C25.6078 14.7245 25.3922 16.9468 24.5684 18.9664C23.7446 20.986 22.3495 22.7121 20.5596 23.9266C18.7697 25.1411 16.6653 25.7893 14.5125 25.7893C11.6258 25.7893 8.85732 24.6248 6.8161 22.5521C4.77488 20.4793 3.62814 17.6681 3.62814 14.7368Z" fill="white"/>
</svg>
